<svg width="256" height="256" viewBox="0 0 256 256" fill="none" xmlns="http://www.w3.org/2000/svg">
<g clip-path="url(#clip0)">
<path d="M188.612 188.87C187.314 193.825 182.765 196.922 182.765 196.922C182.765 196.922 180.321 191.985 181.619 187.029C182.917 182.074 187.466 178.977 187.466 178.977C187.466 178.977 189.911 183.914 188.612 188.87Z" fill="#3F3D56"/>
<path d="M186.643 187.822C183.007 191.422 182.601 196.919 182.601 196.919C182.601 196.919 188.089 196.578 191.725 192.977C195.361 189.376 195.767 183.879 195.767 183.879C195.767 183.879 190.279 184.221 186.643 187.822Z" fill="#FF3900"/>
<path d="M54.9006 170.124H61.7481L78.6221 163.505C78.6221 163.505 90.6051 158.602 89.6269 167.918C88.6487 177.233 86.9369 189.735 86.9369 189.735C86.9369 189.735 81.5567 187.284 78.6221 188.019C75.6875 188.755 77.6439 173.066 77.6439 173.066C77.6439 173.066 53.6779 184.587 51.4769 183.117C49.276 181.646 48.7869 171.35 48.7869 171.35L54.9006 170.124Z" fill="#2F2E41"/>
<path opacity="0.1" d="M54.9006 170.124H61.7481L78.6221 163.505C78.6221 163.505 90.6051 158.602 89.6269 167.918C88.6487 177.233 86.9369 189.735 86.9369 189.735C86.9369 189.735 81.5567 187.284 78.6221 188.019C75.6875 188.755 77.6439 173.066 77.6439 173.066C77.6439 173.066 53.6779 184.587 51.4769 183.117C49.276 181.646 48.7869 171.35 48.7869 171.35L54.9006 170.124Z" fill="black"/>
<path d="M65.6888 148.629L73.9756 160.564L93.2952 176.743C93.2952 176.743 111.147 180.91 108.702 183.852C106.256 186.794 91.3388 180.91 91.3388 180.91C91.3388 180.91 69.0846 164.731 68.351 163.505C67.6173 162.28 59.5471 150.758 59.5471 150.758L65.6888 148.629Z" fill="#A0616A"/>
<path opacity="0.1" d="M65.6888 148.629L73.9756 160.564L93.2952 176.743C93.2952 176.743 111.147 180.91 108.702 183.852C106.256 186.794 91.3388 180.91 91.3388 180.91C91.3388 180.91 69.0846 164.731 68.351 163.505C67.6173 162.28 59.5471 150.758 59.5471 150.758L65.6888 148.629Z" fill="black"/>
<path d="M60.7699 138.991L66.15 149.532C66.15 149.532 64.9273 154.68 62.9709 155.17C61.0145 155.661 52.6997 148.797 52.6997 148.797L60.7699 138.991Z" fill="#D0CDE1"/>
<path opacity="0.1" d="M60.7699 138.991L66.15 149.532C66.15 149.532 64.9273 154.68 62.9709 155.17C61.0145 155.661 52.6997 148.797 52.6997 148.797L60.7699 138.991Z" fill="black"/>
<path d="M126.405 164.666L127.994 171.238C128.012 171.311 128.009 171.388 127.986 171.46L120.777 194.043C120.749 194.132 120.69 194.209 120.612 194.261C120.534 194.312 120.44 194.335 120.347 194.326C120.254 194.317 120.167 194.276 120.1 194.21C120.033 194.144 119.991 194.057 119.98 193.964L118.983 185.166C118.976 185.108 118.982 185.049 119.001 184.993L125.618 164.636C125.645 164.551 125.7 164.477 125.773 164.426C125.846 164.375 125.934 164.349 126.023 164.353C126.112 164.356 126.197 164.389 126.266 164.445C126.335 164.502 126.384 164.579 126.405 164.666Z" fill="#2F2E41"/>
<path d="M125.821 165.221L127.288 170.86L120.929 191.451L119.462 185.078L125.821 165.221Z" fill="#F2F2F2"/>
<path d="M93.7843 195.864C94.0288 196.599 119.218 195.619 119.462 195.374C119.675 195.067 119.856 194.738 120 194.393C120.23 193.903 120.44 193.413 120.44 193.413L119.462 185.475L94.5179 184.587C94.5179 184.587 93.8943 191.314 93.7671 194.393C93.7354 195.17 93.7354 195.717 93.7843 195.864Z" fill="#2F2E41"/>
<path opacity="0.1" d="M116.283 186.549L116.772 193.413H105.767V186.549H116.283Z" fill="black"/>
<path opacity="0.1" d="M102.099 188.755L102.165 188.742L101.854 191.697H95.7407V188.755H102.099Z" fill="black"/>
<path opacity="0.1" d="M93.7843 195.864C94.0288 196.599 119.218 195.619 119.462 195.374C119.675 195.067 119.856 194.738 120 194.393H93.7671C93.7354 195.17 93.7354 195.717 93.7843 195.864Z" fill="black"/>
<path d="M64.4382 135.559C70.516 135.559 75.443 130.62 75.443 124.528C75.443 118.435 70.516 113.496 64.4382 113.496C58.3604 113.496 53.4333 118.435 53.4333 124.528C53.4333 130.62 58.3604 135.559 64.4382 135.559Z" fill="#A0616A"/>
<path d="M63.7045 134.333C63.7045 134.333 60.0363 140.707 59.3026 144.139C58.5689 147.571 48.2978 137.275 48.2978 137.275L46.9528 133.72C46.9528 133.72 56.6125 129.185 55.8789 125.508C55.1452 121.831 63.7045 134.333 63.7045 134.333Z" fill="#A0616A"/>
<path d="M65.6609 153.454L75.6876 166.692L99.6536 184.587C99.6536 184.587 117.017 188.265 113.104 190.961C109.191 193.658 97.9417 188.51 97.9417 188.51C97.9417 188.51 73.7311 175.517 68.5956 170.124C63.46 164.731 53.9225 155.661 53.9225 155.661L65.6609 153.454Z" fill="#A0616A"/>
<path d="M52.2106 174.046L55.1452 178.704L72.6593 173.181C76.5022 171.969 80.7161 172.415 84.1246 174.567C87.1815 176.498 89.1379 179.562 84.7359 184.097C75.9321 193.167 70.0629 188.265 70.0629 188.265C70.0629 188.265 40.4722 202.238 35.5811 195.374C30.6901 188.51 30.4456 185.078 30.4456 185.078C30.4456 185.078 49.276 173.311 52.2106 174.046Z" fill="#2F2E41"/>
<path d="M88.8932 190.226C88.8932 190.226 96.7189 195.374 87.4259 197.825C78.133 200.277 71.2855 196.845 71.2855 196.845C71.2855 196.845 63.2153 196.845 63.2153 192.677C63.2153 188.51 65.9054 188.019 65.9054 188.019L74.2201 189.245C74.2201 189.245 84.2467 186.549 88.8932 190.226Z" fill="#D0CDE1"/>
<path d="M73.4659 121.753C74.2149 122.087 74.9576 122.483 75.772 122.581C76.5863 122.678 77.5136 122.393 77.8989 121.667C78.1071 121.275 78.1309 120.814 78.1406 120.37C78.17 119.024 78.0729 117.569 77.2219 116.527C76.6803 115.864 75.8897 115.446 75.3291 114.799C74.9275 114.336 74.6602 113.774 74.3723 113.232C73.2821 111.179 71.6678 109.207 69.4243 108.615C68.4875 108.368 67.5047 108.38 66.5361 108.394L60.8864 108.473C59.9721 108.486 59.0438 108.501 58.1685 108.767C56.35 109.318 55.026 110.851 53.8134 112.317C52.9061 113.414 51.9965 114.522 51.3156 115.772C50.3394 117.597 49.8458 119.643 49.8818 121.713C49.8743 122.244 49.9427 122.774 50.0849 123.285C50.2514 123.754 50.4576 124.208 50.7013 124.642C51.7608 126.728 52.3899 129.334 51.1967 131.346C53.2694 130.497 55.3203 129.385 56.6875 127.607C57.2992 126.812 57.7789 125.882 58.594 125.298C59.4092 124.715 60.7374 124.664 61.2604 125.52C61.4402 125.867 61.5327 126.252 61.5301 126.642C61.5683 127.285 61.5672 127.953 61.8391 128.536C62.1109 129.119 62.7585 129.59 63.3768 129.416C64.4415 129.115 64.3396 127.477 65.1597 126.733C65.7825 126.167 66.7434 126.276 67.5435 126.019C68.4757 125.72 69.1752 124.911 69.5738 124.014C69.8768 123.333 69.8724 121.551 70.4457 121.182C71.1646 120.719 72.7995 121.455 73.4659 121.753Z" fill="#2F2E41"/>
<path d="M46.0791 132.558C46.5742 132.425 47.0954 132.426 47.5898 132.561C49.1597 132.984 52.6788 134.102 53.4333 135.804C54.4115 138.01 57.8353 141.442 57.8353 141.442C57.8353 141.442 62.4817 146.1 61.5035 149.287C60.5253 152.474 56.8571 156.151 56.8571 156.151C56.8571 156.151 57.8353 171.35 52.9442 175.272C48.0532 179.194 46.0968 176.498 46.0968 180.175C46.0968 183.852 30.9346 195.374 28 188.265C28 188.265 29.4673 175.027 28.9782 170.369C28.4962 165.779 29.2019 137.138 46.0791 132.558Z" fill="#D0CDE1"/>
<path d="M53.9225 138.746C53.9225 138.746 68.8401 149.777 66.1501 154.435C66.1501 154.435 57.1017 158.847 55.1453 158.602C53.1888 158.357 45.6077 149.777 43.6513 149.042C41.6949 148.306 40.7167 135.069 53.9225 138.746Z" fill="#D0CDE1"/>
<path d="M120.571 114.352C127.244 114.352 132.652 108.93 132.652 102.241C132.652 95.5529 127.244 90.131 120.571 90.131C113.899 90.131 108.49 95.5529 108.49 102.241C108.49 108.93 113.899 114.352 120.571 114.352Z" fill="#F2F2F2"/>
<path d="M220.355 86.5133H152.655V72.3127H220.355V86.5133ZM152.953 86.2143H220.056V72.6116H152.953V86.2143Z" fill="#3F3D56"/>
<path d="M215.434 75.1528H148.032V89.0545H215.434V75.1528Z" fill="#FF3900"/>
<path d="M105.424 61.8865C106 61.8865 106.468 61.418 106.468 60.8401C106.468 60.2622 106 59.7938 105.424 59.7938C104.847 59.7938 104.38 60.2622 104.38 60.8401C104.38 61.418 104.847 61.8865 105.424 61.8865Z" fill="#FF3900"/>
<path d="M109.003 61.8865C109.579 61.8865 110.047 61.418 110.047 60.8401C110.047 60.2622 109.579 59.7938 109.003 59.7938C108.426 59.7938 107.959 60.2622 107.959 60.8401C107.959 61.418 108.426 61.8865 109.003 61.8865Z" fill="#FF3900"/>
<path d="M112.582 61.8865C113.158 61.8865 113.625 61.418 113.625 60.8401C113.625 60.2622 113.158 59.7938 112.582 59.7938C112.005 59.7938 111.538 60.2622 111.538 60.8401C111.538 61.418 112.005 61.8865 112.582 61.8865Z" fill="#FF3900"/>
<path d="M228 139.915H102.441V58H228V139.915ZM102.74 139.616H227.702V58.299H102.74V139.616Z" fill="#3F3D56"/>
<path d="M227.851 62.5345H102.591V62.8334H227.851V62.5345Z" fill="#3F3D56"/>
<path d="M105.722 61.5875C105.486 61.5875 105.255 61.5173 105.059 61.3859C104.863 61.2545 104.71 61.0678 104.62 60.8493C104.53 60.6308 104.506 60.3903 104.552 60.1583C104.598 59.9264 104.712 59.7133 104.878 59.5461C105.045 59.3788 105.258 59.2649 105.489 59.2188C105.721 59.1726 105.961 59.1963 106.179 59.2868C106.397 59.3773 106.583 59.5306 106.714 59.7273C106.845 59.9239 106.915 60.1551 106.915 60.3916C106.915 60.7087 106.789 61.0126 106.565 61.2368C106.342 61.461 106.038 61.5871 105.722 61.5875ZM105.722 59.4948C105.545 59.4948 105.372 59.5474 105.225 59.6459C105.078 59.7445 104.963 59.8845 104.895 60.0484C104.828 60.2123 104.81 60.3926 104.844 60.5666C104.879 60.7406 104.964 60.9004 105.089 61.0258C105.214 61.1513 105.374 61.2367 105.547 61.2713C105.721 61.3059 105.901 61.2881 106.064 61.2202C106.228 61.1524 106.368 61.0374 106.466 60.8899C106.564 60.7424 106.617 60.569 106.617 60.3916C106.616 60.1539 106.522 59.9259 106.354 59.7578C106.187 59.5896 105.959 59.495 105.722 59.4948V59.4948Z" fill="#3F3D56"/>
<path d="M109.301 61.5875C109.065 61.5875 108.834 61.5173 108.638 61.3859C108.442 61.2545 108.289 61.0678 108.199 60.8493C108.109 60.6308 108.085 60.3903 108.131 60.1583C108.177 59.9264 108.291 59.7133 108.457 59.5461C108.624 59.3788 108.837 59.2649 109.068 59.2188C109.3 59.1726 109.54 59.1963 109.758 59.2868C109.975 59.3773 110.162 59.5306 110.293 59.7273C110.424 59.9239 110.494 60.1551 110.494 60.3916C110.494 60.7087 110.368 61.0126 110.144 61.2368C109.92 61.461 109.617 61.5871 109.301 61.5875V61.5875ZM109.301 59.4948C109.124 59.4948 108.951 59.5474 108.804 59.6459C108.657 59.7445 108.542 59.8845 108.474 60.0484C108.407 60.2123 108.389 60.3926 108.423 60.5666C108.458 60.7406 108.543 60.9004 108.668 61.0258C108.793 61.1513 108.953 61.2367 109.126 61.2713C109.3 61.3059 109.48 61.2881 109.643 61.2202C109.807 61.1524 109.947 61.0374 110.045 60.8899C110.143 60.7424 110.196 60.569 110.196 60.3916C110.195 60.1539 110.101 59.9259 109.933 59.7578C109.766 59.5896 109.538 59.495 109.301 59.4948V59.4948Z" fill="#3F3D56"/>
<path d="M112.88 61.5875C112.644 61.5875 112.413 61.5173 112.217 61.3859C112.021 61.2545 111.868 61.0678 111.778 60.8493C111.687 60.6308 111.664 60.3903 111.71 60.1583C111.756 59.9264 111.869 59.7133 112.036 59.5461C112.203 59.3788 112.416 59.2649 112.647 59.2188C112.879 59.1726 113.118 59.1963 113.336 59.2868C113.554 59.3773 113.741 59.5306 113.872 59.7273C114.003 59.9239 114.073 60.1551 114.073 60.3916C114.072 60.7087 113.947 61.0126 113.723 61.2368C113.499 61.461 113.196 61.5871 112.88 61.5875V61.5875ZM112.88 59.4948C112.703 59.4948 112.53 59.5474 112.383 59.6459C112.236 59.7445 112.121 59.8845 112.053 60.0484C111.986 60.2123 111.968 60.3926 112.002 60.5666C112.037 60.7406 112.122 60.9004 112.247 61.0258C112.372 61.1513 112.532 61.2367 112.705 61.2713C112.879 61.3059 113.059 61.2881 113.222 61.2202C113.386 61.1524 113.525 61.0374 113.624 60.8899C113.722 60.7424 113.775 60.569 113.775 60.3916C113.774 60.1539 113.68 59.9259 113.512 59.7578C113.344 59.5896 113.117 59.495 112.88 59.4948V59.4948Z" fill="#3F3D56"/>
<path d="M142.067 62.684H141.768V139.881H142.067V62.684Z" fill="#3F3D56"/>
<path d="M177.93 100.639H156.01V103.629H177.93V100.639Z" fill="#F2F2F2"/>
<path d="M212.377 100.639H190.456V103.629H212.377V100.639Z" fill="#F2F2F2"/>
<path d="M179.272 102.283H157.053V98.9949H179.272V102.283ZM157.352 101.984H178.974V99.2938H157.352V101.984Z" fill="#3F3D56"/>
<path d="M177.93 123.809H156.01V126.798H177.93V123.809Z" fill="#F2F2F2"/>
<path d="M179.272 125.453H157.053V122.164H179.272V125.453ZM157.352 125.154H178.974V122.463H157.352V125.154Z" fill="#3F3D56"/>
<path d="M212.451 111.925H156.084V114.914H212.451V111.925Z" fill="#F2F2F2"/>
<path d="M213.793 113.868H157.128V110.58H213.793V113.868ZM157.426 113.569H213.495V110.878H157.426V113.569Z" fill="#3F3D56"/>
<path d="M213.719 102.283H191.5V98.9949H213.719V102.283ZM191.798 101.984H213.421V99.2938H191.798V101.984Z" fill="#3F3D56"/>
<path d="M122.616 111.184C120.19 111.184 117.818 110.463 115.801 109.112C113.784 107.761 112.211 105.84 111.283 103.593C110.354 101.346 110.111 98.874 110.585 96.4887C111.058 94.1034 112.226 91.9124 113.942 90.1927C115.657 88.4729 117.843 87.3018 120.223 86.8273C122.602 86.3529 125.069 86.5964 127.31 87.5271C129.552 88.4578 131.468 90.0339 132.816 92.056C134.163 94.0782 134.883 96.4556 134.883 98.8877C134.879 102.148 133.586 105.273 131.286 107.579C128.986 109.884 125.868 111.181 122.616 111.184ZM122.616 86.9637C120.263 86.9637 117.963 87.663 116.007 88.9732C114.051 90.2835 112.527 92.1457 111.626 94.3246C110.726 96.5034 110.49 98.9009 110.949 101.214C111.408 103.527 112.541 105.652 114.205 107.319C115.868 108.987 117.988 110.122 120.295 110.583C122.603 111.043 124.994 110.806 127.168 109.904C129.342 109.001 131.199 107.473 132.506 105.512C133.813 103.551 134.511 101.246 134.511 98.8877C134.508 95.7263 133.253 92.6955 131.023 90.4601C128.793 88.2247 125.77 86.9673 122.616 86.9637Z" fill="#3F3D56"/>
<path d="M219.636 196.701H167.037V197.074H219.636V196.701Z" fill="#3F3D56"/>
</g>
<defs>
<clipPath id="clip0">
<rect width="200" height="140.708" fill="white" transform="translate(28 58)"/>
</clipPath>
</defs>
</svg>
