<svg width="256" height="256" viewBox="0 0 256 256" fill="none" xmlns="http://www.w3.org/2000/svg">
<g clip-path="url(#clip0)">
<path d="M189.094 52.0912H28.0687V155.219H189.094V52.0912Z" fill="#E6E6E6"/>
<path d="M184.489 65.0261H32.6732V149.118H184.489V65.0261Z" fill="white"/>
<path d="M189.025 52H28V58.8409H189.025V52Z" fill="#FF3900"/>
<path d="M33.0836 56.7654C33.7838 56.7654 34.3515 56.1977 34.3515 55.4975C34.3515 54.7972 33.7838 54.2296 33.0836 54.2296C32.3833 54.2296 31.8157 54.7972 31.8157 55.4975C31.8157 56.1977 32.3833 56.7654 33.0836 56.7654Z" fill="white"/>
<path d="M37.8963 56.7654C38.5966 56.7654 39.1642 56.1977 39.1642 55.4975C39.1642 54.7972 38.5966 54.2296 37.8963 54.2296C37.1961 54.2296 36.6284 54.7972 36.6284 55.4975C36.6284 56.1977 37.1961 56.7654 37.8963 56.7654Z" fill="white"/>
<path d="M42.7091 56.7654C43.4093 56.7654 43.977 56.1977 43.977 55.4975C43.977 54.7972 43.4093 54.2296 42.7091 54.2296C42.0088 54.2296 41.4412 54.7972 41.4412 55.4975C41.4412 56.1977 42.0088 56.7654 42.7091 56.7654Z" fill="white"/>
<path d="M85.4774 73.7513H46.4678V140.393H85.4774V73.7513Z" fill="#E6E6E6"/>
<path d="M124.719 73.7513H92.2113V92.0951H124.719V73.7513Z" fill="#FF3900"/>
<path d="M124.719 97.2035H92.2113V116.94H124.719V97.2035Z" fill="#E6E6E6"/>
<path d="M124.719 122.049H92.2113V140.393H124.719V122.049Z" fill="#E6E6E6"/>
<path d="M170.695 73.7513H131.685V102.793H170.695V73.7513Z" fill="#E6E6E6"/>
<path d="M170.695 111.351H131.685V140.393H170.695V111.351Z" fill="#FF3900"/>
<path d="M212.228 103.689C209.655 99.3034 204.564 99.0991 204.564 99.0991C204.564 99.0991 199.603 98.4592 196.421 105.138C193.455 111.364 189.361 117.375 195.762 118.832L196.918 115.203L197.634 119.102C198.546 119.169 199.46 119.184 200.373 119.15C207.228 118.926 213.756 119.215 213.545 116.734C213.266 113.436 214.704 107.909 212.228 103.689Z" fill="#2F2E41"/>
<path d="M187.826 127.104L185.576 132.856L174.321 143.36C174.321 143.36 167.569 148.362 170.57 149.863C173.571 151.363 176.322 144.361 176.322 144.361L188.327 137.108L190.828 128.855L187.826 127.104Z" fill="#FFB8B8"/>
<path d="M191.578 190.878L193.829 196.63H197.08L194.329 189.878L191.578 190.878Z" fill="#FFB8B8"/>
<path d="M201.331 193.379L203.582 199.131H206.833L204.082 192.379L201.331 193.379Z" fill="#FFB8B8"/>
<path d="M201.081 194.379L205.333 193.379L199.831 171.121L201.658 153.994L201.706 153.989C201.706 153.989 204.833 141.86 202.332 138.609C199.831 135.357 187.326 136.608 187.326 136.608C187.326 136.608 182.574 141.36 182.824 152.114C183.075 162.868 182.824 172.121 184.575 176.373C186.326 180.624 191.328 191.878 191.328 191.878L195.329 191.378L191.078 172.871L190.398 156.784C190.939 163.23 192.028 175.455 192.578 176.373C193.328 177.623 201.081 194.379 201.081 194.379Z" fill="#2F2E41"/>
<path d="M213.836 132.356L215.587 138.609L223.34 152.614C223.34 152.614 230.092 158.616 227.341 159.366C224.59 160.117 220.339 153.864 220.339 153.864L211.585 141.61L209.334 132.606L213.836 132.356Z" fill="#FFB8B8"/>
<path d="M204.833 114.6C208.286 114.6 211.085 111.8 211.085 108.347C211.085 104.894 208.286 102.095 204.833 102.095C201.38 102.095 198.58 104.894 198.58 108.347C198.58 111.8 201.38 114.6 204.833 114.6Z" fill="#FFB8B8"/>
<path d="M201.582 111.599L200.081 116.35L197.58 121.852L206.834 118.101C206.834 118.101 206.333 114.099 206.834 113.099L201.582 111.599Z" fill="#FFB8B8"/>
<path d="M212.336 121.602L206.583 116.85L200.081 119.602L200.336 115.544L193.398 117.759L192.328 118.101L190.828 125.854C190.828 125.854 189.827 126.604 188.827 130.856C188.249 133.354 187.411 135.785 186.326 138.108C186.326 138.108 197.08 133.857 202.332 139.609C202.332 139.609 203.082 139.109 202.832 138.358C202.582 137.608 205.083 133.857 205.083 133.857C205.083 133.857 205.083 134.607 206.083 133.107C207.084 131.606 207.834 131.356 207.834 131.356L212.336 121.602Z" fill="#FF3900"/>
<path d="M193.829 118.851L192.736 117.971C192.736 117.971 191.828 117.601 191.078 118.851C190.327 120.102 186.576 127.855 186.576 127.855L191.078 130.105L193.829 118.851Z" fill="#FF3900"/>
<path d="M208.834 121.352L212.335 121.602C212.335 121.602 214.336 122.603 214.336 124.103C214.336 125.604 214.836 133.607 214.836 133.607L209.334 135.357L207.083 128.355L208.834 121.352Z" fill="#FF3900"/>
<path d="M193.106 195.755L188.854 197.505C188.854 197.505 183.852 197.756 184.603 200.256C185.353 202.757 192.856 201.007 192.856 201.007C192.856 201.007 199.608 201.257 199.608 199.506C199.608 197.756 198.608 195.755 197.608 195.755H193.106Z" fill="#2F2E41"/>
<path d="M202.609 198.006L198.358 199.756C198.358 199.756 193.356 200.006 194.106 202.507C194.857 205.008 202.359 203.258 202.359 203.258C202.359 203.258 209.112 203.508 209.112 201.757C209.112 200.006 208.111 198.006 207.111 198.006H202.609Z" fill="#2F2E41"/>
<path d="M211.09 103.266L206.061 100.609L199.116 101.696L197.678 108.098L201.256 107.959L202.255 105.607V107.92L203.906 107.856L204.863 104.112L205.462 108.098L211.33 107.977L211.09 103.266Z" fill="#2F2E41"/>
<path d="M177.45 72.8943C172.448 68.6728 166.326 65.9965 159.829 65.1909C153.333 64.3853 146.743 65.4853 140.86 68.3569C134.978 71.2285 130.057 75.748 126.696 81.3654C123.336 86.9828 121.68 93.4559 121.931 99.9971C122.182 106.538 124.329 112.865 128.111 118.209C131.892 123.552 137.145 127.681 143.231 130.093C149.316 132.505 155.971 133.096 162.386 131.795C168.802 130.494 174.7 127.356 179.365 122.764L220.785 157.713C221.097 157.977 221.458 158.177 221.848 158.301C222.237 158.425 222.647 158.471 223.054 158.436C223.462 158.402 223.858 158.287 224.221 158.1C224.584 157.912 224.907 157.655 225.17 157.342C225.434 157.03 225.633 156.669 225.757 156.279C225.881 155.89 225.927 155.48 225.892 155.073C225.858 154.665 225.743 154.269 225.556 153.906C225.368 153.543 225.111 153.221 224.798 152.957L183.378 118.007C188.19 111.101 190.249 102.648 189.153 94.3025C188.056 85.9575 183.883 78.3227 177.45 72.8943V72.8943ZM174.78 114.642C171.553 118.466 167.265 121.247 162.458 122.634C157.65 124.021 152.539 123.951 147.771 122.434C143.003 120.916 138.793 118.018 135.671 114.108C132.55 110.197 130.659 105.448 130.237 100.462C129.814 95.4767 130.88 90.4776 133.298 86.0974C135.717 81.7172 139.381 78.1526 143.825 75.8544C148.27 73.5562 153.296 72.6276 158.268 73.186C163.241 73.7444 167.936 75.7648 171.76 78.9916C176.888 83.3186 180.087 89.5054 180.654 96.1911C181.22 102.877 179.107 109.514 174.78 114.642V114.642Z" fill="#3F3D56"/>
<path opacity="0.3" d="M139.13 117.662C134.277 113.566 131.141 107.795 130.346 101.495C129.551 95.1945 131.154 88.8253 134.837 83.6522C134.353 84.1393 133.886 84.6495 133.434 85.1827C131.291 87.7218 129.67 90.6581 128.662 93.824C127.654 96.9898 127.279 100.323 127.56 103.634C127.84 106.944 128.77 110.167 130.296 113.119C131.822 116.07 133.914 118.692 136.453 120.834C138.993 122.977 141.929 124.598 145.095 125.606C148.261 126.614 151.594 126.988 154.905 126.708C158.215 126.427 161.438 125.497 164.389 123.971C167.341 122.445 169.962 120.352 172.105 117.813C172.555 117.279 172.979 116.732 173.377 116.172C168.898 120.673 162.889 123.325 156.545 123.601C150.2 123.877 143.984 121.757 139.13 117.662V117.662Z" fill="black"/>
</g>
<defs>
<clipPath id="clip0">
<rect width="200" height="151.853" fill="white" transform="translate(28 52)"/>
</clipPath>
</defs>
</svg>
