<svg width="256" height="256" viewBox="0 0 256 256" fill="none" xmlns="http://www.w3.org/2000/svg">
<g clip-path="url(#clip0)">
<path d="M93.1755 186.497H28V186.949H93.1755V186.497Z" fill="#3F3D56"/>
<path d="M226.19 166.236H64.0721C63.5921 166.236 63.132 166.044 62.7926 165.704C62.4533 165.364 62.2624 164.902 62.2618 164.421V70.8156C62.2624 70.3342 62.4533 69.8727 62.7926 69.5324C63.132 69.192 63.5921 69.0005 64.0721 69H226.19C226.67 69.0005 227.13 69.192 227.469 69.5324C227.809 69.8727 228 70.3342 228 70.8156V164.421C228 164.902 227.809 165.364 227.469 165.704C227.13 166.044 226.67 166.236 226.19 166.236V166.236ZM64.0721 69.4035C63.6988 69.4039 63.3409 69.5528 63.077 69.8176C62.813 70.0823 62.6646 70.4412 62.6641 70.8156V164.421C62.6646 164.795 62.813 165.154 63.077 165.419C63.3409 165.683 63.6988 165.832 64.0721 165.833H226.19C226.563 165.832 226.921 165.683 227.185 165.419C227.449 165.154 227.597 164.795 227.598 164.421V70.8156C227.597 70.4412 227.449 70.0823 227.185 69.8176C226.921 69.5528 226.563 69.4039 226.19 69.4035H64.0721Z" fill="#3F3D56"/>
<path d="M128.26 139.658H77.0455C76.5922 139.657 76.1577 139.476 75.8371 139.155C75.5166 138.833 75.3363 138.398 75.3358 137.943V106.271C75.3363 105.816 75.5166 105.38 75.8371 105.059C76.1577 104.737 76.5922 104.556 77.0455 104.556H128.26C128.714 104.556 129.148 104.737 129.469 105.059C129.789 105.38 129.969 105.816 129.97 106.271V137.943C129.969 138.398 129.789 138.833 129.469 139.155C129.148 139.476 128.714 139.657 128.26 139.658V139.658Z" fill="#E6E6E6"/>
<path d="M58.996 146.287C58.7774 146.287 58.5623 146.232 58.3702 146.128C58.1781 146.023 58.0151 145.872 57.8963 145.688L56.2832 143.189C56.0952 142.896 56.0304 142.542 56.103 142.202C56.1756 141.862 56.3797 141.564 56.6704 141.375L77.4419 127.891C77.7331 127.702 78.087 127.637 78.4259 127.71C78.7649 127.783 79.0611 127.987 79.2498 128.279L80.8629 130.779C80.9562 130.923 81.0202 131.085 81.0513 131.254C81.0823 131.424 81.0798 131.597 81.0438 131.766C81.0079 131.934 80.9392 132.094 80.8417 132.236C80.7442 132.377 80.6198 132.498 80.4757 132.592L59.7043 146.077C59.4934 146.214 59.2474 146.287 58.996 146.287Z" fill="#FF3900"/>
<path d="M59.6433 145.91L68.3264 141.047C68.5972 140.895 68.7994 140.645 68.891 140.348C68.9826 140.05 68.9566 139.729 68.8184 139.451L66.8069 135.397C66.7274 135.237 66.6136 135.097 66.4735 134.986C66.3335 134.875 66.1707 134.797 65.9969 134.757C65.8231 134.717 65.6426 134.716 65.4684 134.754C65.2942 134.792 65.1306 134.869 64.9894 134.978L56.7175 141.377C56.4492 141.552 56.261 141.826 56.1939 142.14C56.1268 142.454 56.1864 142.781 56.3595 143.051L57.9729 145.551C58.1472 145.82 58.421 146.01 58.7342 146.077C59.0473 146.144 59.3743 146.084 59.6433 145.91V145.91Z" fill="#CCCCCC"/>
<path d="M68.2688 74.4953C69.0464 74.4953 69.6768 73.863 69.6768 73.0831C69.6768 72.3032 69.0464 71.671 68.2688 71.671C67.4912 71.671 66.8608 72.3032 66.8608 73.0831C66.8608 73.863 67.4912 74.4953 68.2688 74.4953Z" fill="#FF3900"/>
<path d="M72.2916 74.4953C73.0692 74.4953 73.6996 73.863 73.6996 73.0831C73.6996 72.3032 73.0692 71.671 72.2916 71.671C71.514 71.671 70.8837 72.3032 70.8837 73.0831C70.8837 73.863 71.514 74.4953 72.2916 74.4953Z" fill="#FF3900"/>
<path d="M76.3143 74.4953C77.0919 74.4953 77.7223 73.863 77.7223 73.0831C77.7223 72.3032 77.0919 71.671 76.3143 71.671C75.5367 71.671 74.9064 72.3032 74.9064 73.0831C74.9064 73.863 75.5367 74.4953 76.3143 74.4953Z" fill="#FF3900"/>
<path d="M227.799 76.4642H62.4629V77.4728H227.799V76.4642Z" fill="#3F3D56"/>
<path d="M80.7414 102.337C80.3415 102.337 79.958 102.497 79.6752 102.78C79.3924 103.064 79.2333 103.449 79.2329 103.85V135.522C79.2333 135.923 79.3924 136.308 79.6752 136.591C79.958 136.875 80.3415 137.035 80.7414 137.035H131.956C132.356 137.035 132.74 136.875 133.022 136.591C133.305 136.308 133.464 135.923 133.465 135.522V103.85C133.464 103.449 133.305 103.064 133.022 102.78C132.74 102.497 132.356 102.337 131.956 102.337H80.7414Z" fill="#3F3D56"/>
<path d="M154.082 102.639C153.788 102.639 153.507 102.756 153.299 102.964C153.092 103.172 152.975 103.455 152.975 103.749C152.975 104.043 153.092 104.325 153.299 104.533C153.507 104.741 153.788 104.858 154.082 104.858H213.82C214.113 104.858 214.395 104.741 214.602 104.533C214.809 104.325 214.926 104.043 214.926 103.749C214.926 103.455 214.809 103.172 214.602 102.964C214.395 102.756 214.113 102.639 213.82 102.639H154.082Z" fill="#FF3900"/>
<path d="M154.082 109.7C153.788 109.7 153.507 109.817 153.299 110.025C153.092 110.233 152.975 110.515 152.975 110.81C152.975 111.104 153.092 111.386 153.299 111.594C153.507 111.802 153.788 111.919 154.082 111.919H213.82C214.113 111.919 214.395 111.802 214.602 111.594C214.809 111.386 214.926 111.104 214.926 110.81C214.926 110.515 214.809 110.233 214.602 110.025C214.395 109.817 214.113 109.7 213.82 109.7H154.082Z" fill="#FF3900"/>
<path d="M154.082 116.761C153.788 116.761 153.507 116.878 153.299 117.086C153.092 117.294 152.975 117.576 152.975 117.87C152.975 118.165 153.092 118.447 153.299 118.655C153.507 118.863 153.788 118.98 154.082 118.98H213.82C214.113 118.98 214.395 118.863 214.602 118.655C214.809 118.447 214.926 118.165 214.926 117.87C214.926 117.576 214.809 117.294 214.602 117.086C214.395 116.878 214.113 116.761 213.82 116.761H154.082Z" fill="#FF3900"/>
<path d="M154.082 123.822C153.788 123.822 153.507 123.938 153.299 124.147C153.092 124.355 152.975 124.637 152.975 124.931C152.975 125.225 153.092 125.508 153.299 125.716C153.507 125.924 153.788 126.041 154.082 126.041H213.82C214.113 126.041 214.395 125.924 214.602 125.716C214.809 125.508 214.926 125.225 214.926 124.931C214.926 124.637 214.809 124.355 214.602 124.147C214.395 123.938 214.113 123.822 213.82 123.822H154.082Z" fill="#E6E6E6"/>
<path d="M154.082 130.882C153.788 130.882 153.507 130.999 153.299 131.207C153.092 131.415 152.975 131.697 152.975 131.992C152.975 132.286 153.092 132.568 153.299 132.776C153.507 132.984 153.788 133.101 154.082 133.101H213.82C214.113 133.101 214.395 132.984 214.602 132.776C214.809 132.568 214.926 132.286 214.926 131.992C214.926 131.697 214.809 131.415 214.602 131.207C214.395 130.999 214.113 130.882 213.82 130.882H154.082Z" fill="#E6E6E6"/>
<path d="M154.082 137.943C153.788 137.943 153.507 138.06 153.299 138.268C153.092 138.476 152.975 138.758 152.975 139.052C152.975 139.347 153.092 139.629 153.299 139.837C153.507 140.045 153.788 140.162 154.082 140.162H213.82C214.113 140.162 214.395 140.045 214.602 139.837C214.809 139.629 214.926 139.347 214.926 139.052C214.926 138.758 214.809 138.476 214.602 138.268C214.395 138.06 214.113 137.943 213.82 137.943H154.082Z" fill="#E6E6E6"/>
<path d="M58.7986 130.286C64.7438 130.286 69.5633 125.452 69.5633 119.489C69.5633 113.526 64.7438 108.692 58.7986 108.692C52.8534 108.692 48.0338 113.526 48.0338 119.489C48.0338 125.452 52.8534 130.286 58.7986 130.286Z" fill="#FF3900"/>
<path d="M57.1025 186.737H54.1337C53.7871 186.736 53.4548 186.598 53.2097 186.352C52.9646 186.106 52.8267 185.773 52.8263 185.425V160.609C52.8267 160.261 52.9646 159.928 53.2097 159.682C53.4548 159.436 53.7871 159.298 54.1337 159.298H57.1025C57.4491 159.298 57.7814 159.436 58.0265 159.682C58.2716 159.928 58.4095 160.261 58.4099 160.609V185.425C58.4095 185.773 58.2716 186.106 58.0265 186.352C57.7814 186.598 57.4491 186.736 57.1025 186.737V186.737Z" fill="#2F2E41"/>
<path d="M62.9742 186.737H60.0054C59.6588 186.736 59.3265 186.598 59.0814 186.352C58.8363 186.106 58.6984 185.773 58.698 185.425V160.609C58.6984 160.261 58.8363 159.928 59.0814 159.682C59.3265 159.436 59.6588 159.298 60.0054 159.298H62.9742C63.3208 159.298 63.6531 159.436 63.8982 159.682C64.1433 159.928 64.2812 160.261 64.2816 160.609V185.425C64.2812 185.773 64.1433 186.106 63.8982 186.352C63.6531 186.598 63.3208 186.736 62.9742 186.737Z" fill="#2F2E41"/>
<path d="M65.4206 163.426H51.9318C51.5852 163.425 51.2529 163.287 51.0078 163.041C50.7627 162.795 50.6248 162.462 50.6244 162.114V139.298C50.6266 137.379 51.3875 135.54 52.7404 134.183C54.0932 132.826 55.9274 132.063 57.8406 132.061H65.4206C65.7673 132.061 66.0996 132.199 66.3447 132.445C66.5898 132.691 66.7276 133.024 66.7281 133.372V162.114C66.7276 162.462 66.5898 162.795 66.3447 163.041C66.0996 163.287 65.7673 163.425 65.4206 163.426V163.426Z" fill="#CCCCCC"/>
<path d="M68.1948 122.489L68.1836 122.085C68.932 122.064 69.5918 122.017 70.0875 121.654C70.2281 121.545 70.3436 121.407 70.4263 121.25C70.5089 121.092 70.5567 120.918 70.5665 120.741C70.5752 120.632 70.5588 120.523 70.5186 120.421C70.4784 120.32 70.4154 120.229 70.3346 120.157C70.0056 119.878 69.4761 119.968 69.09 120.146L68.7571 120.299L69.3954 115.62L69.794 115.675L69.2511 119.655C69.7756 119.5 70.2615 119.566 70.5943 119.848C70.7221 119.96 70.8224 120.1 70.8873 120.258C70.9522 120.415 70.98 120.585 70.9685 120.755C70.9567 120.994 70.893 121.227 70.7819 121.439C70.6707 121.65 70.5147 121.835 70.3248 121.98C69.6878 122.447 68.86 122.47 68.1948 122.489Z" fill="#2F2E41"/>
<path d="M67.0928 116.018H64.9263V116.422H67.0928V116.018Z" fill="#2F2E41"/>
<path d="M71.2537 161.645C71.016 161.645 70.7828 161.58 70.5791 161.457C70.3753 161.335 70.2087 161.158 70.097 160.948L58.4984 139.027C58.3363 138.72 58.3023 138.361 58.404 138.028C58.5056 137.696 58.7345 137.418 59.0405 137.254L61.6628 135.859C61.9692 135.696 62.3273 135.662 62.6587 135.764C62.9901 135.866 63.2677 136.095 63.4306 136.402L75.0292 158.323C75.1913 158.63 75.2252 158.989 75.1236 159.322C75.022 159.654 74.7931 159.933 74.4871 160.096L71.8648 161.492C71.6767 161.592 71.4668 161.645 71.2537 161.645Z" fill="#FF3900"/>
<path d="M57.6639 138.981L62.7492 148.077C62.8764 148.361 63.1077 148.585 63.395 148.702C63.6823 148.819 64.0035 148.821 64.2921 148.707L68.4923 147.048C68.6582 146.982 68.8076 146.88 68.9297 146.75C69.0518 146.62 69.1435 146.464 69.1984 146.294C69.2532 146.123 69.2697 145.943 69.2468 145.766C69.2239 145.588 69.162 145.418 69.0657 145.268L63.4245 136.046C63.2741 135.763 63.018 135.551 62.7123 135.457C62.4065 135.362 62.0761 135.394 61.7932 135.543L58.1647 137.343C57.8819 137.494 57.6703 137.751 57.5764 138.058C57.4825 138.365 57.514 138.697 57.6639 138.981V138.981Z" fill="#CCCCCC"/>
<path d="M65.1884 111.595C66.4868 111.474 67.5738 110.612 68.1503 109.458C68.4446 108.86 68.5991 108.203 68.6019 107.537C68.6047 106.871 68.4557 106.213 68.1664 105.613C67.5545 104.355 66.5337 103.344 65.2721 102.747C63.8048 102.034 62.1477 101.837 60.5336 101.902C57.4921 102.025 54.1412 102.882 52.2715 105.483C51.392 106.662 51.0098 108.141 51.2072 109.601C51.4438 111.133 52.3734 112.459 53.3658 113.603C54.406 114.801 55.6063 115.881 56.4284 117.253C57.1398 118.441 57.5224 119.937 57.0466 121.285C56.9331 121.605 56.7647 121.902 56.5489 122.163C56.3029 122.461 56.7275 122.891 56.9756 122.591C57.8316 121.555 58.0047 120.187 57.7351 118.898C57.4384 117.479 56.5823 116.279 55.6462 115.207C53.8246 113.122 51.1119 110.844 51.8775 107.728C52.237 106.378 53.055 105.195 54.1905 104.385C55.408 103.5 56.8536 103.012 58.3226 102.748C61.1335 102.242 64.5376 102.295 66.6614 104.491C67.544 105.404 68.1511 106.68 67.9885 107.975C67.8419 109.142 67.0987 110.287 66.0121 110.774C65.751 110.89 65.4728 110.963 65.1884 110.99C64.805 111.026 64.8013 111.631 65.1884 111.595L65.1884 111.595Z" fill="#2F2E41"/>
</g>
<defs>
<clipPath id="clip0">
<rect width="200" height="117.949" fill="white" transform="translate(28 69)"/>
</clipPath>
</defs>
</svg>
